<?xml version="1.0" encoding="UTF-8"?>
<svg xmlns="http://www.w3.org/2000/svg" xmlns:xlink="http://www.w3.org/1999/xlink" width="16px" height="16px" viewBox="0 0 16 16" version="1.1">
<g id="surface1">
<path style=" stroke:none;fill-rule:evenodd;fill:rgb(96.862745%,57.647061%,10.196079%);fill-opacity:1;" d="M 15.648438 7.824219 C 15.648438 12.015625 12.25 15.414062 8.058594 15.414062 C 3.867188 15.414062 0.46875 12.015625 0.46875 7.824219 C 0.46875 3.632812 3.867188 0.234375 8.058594 0.234375 C 12.25 0.234375 15.648438 3.632812 15.648438 7.824219 Z M 9.882812 5.003906 C 10.9375 5.367188 11.710938 5.910156 11.558594 6.921875 C 11.449219 7.660156 11.039062 8.019531 10.492188 8.144531 C 11.242188 8.535156 11.496094 9.273438 11.257812 10.164062 C 10.808594 11.449219 9.734375 11.558594 8.308594 11.289062 L 7.960938 12.671875 L 7.125 12.464844 L 7.46875 11.101562 C 7.25 11.046875 7.03125 10.988281 6.800781 10.929688 L 6.457031 12.296875 L 5.625 12.089844 L 5.96875 10.707031 L 4.285156 10.28125 L 4.699219 9.328125 C 4.699219 9.328125 5.316406 9.492188 5.308594 9.480469 C 5.546875 9.539062 5.648438 9.382812 5.691406 9.28125 L 6.628906 5.53125 C 6.640625 5.355469 6.578125 5.132812 6.242188 5.046875 C 6.253906 5.039062 5.632812 4.898438 5.632812 4.898438 L 5.855469 4.007812 L 7.542969 4.421875 L 7.886719 3.054688 L 8.722656 3.261719 L 8.386719 4.605469 C 8.609375 4.65625 8.835938 4.707031 9.054688 4.761719 L 9.390625 3.429688 L 10.226562 3.636719 Z M 7.882812 7.289062 C 8.453125 7.441406 9.691406 7.769531 9.90625 6.90625 C 10.128906 6.023438 8.921875 5.757812 8.332031 5.628906 C 8.265625 5.613281 8.207031 5.601562 8.160156 5.589844 L 7.742188 7.253906 C 7.78125 7.261719 7.828125 7.273438 7.882812 7.289062 Z M 7.238281 9.96875 C 7.917969 10.148438 9.410156 10.539062 9.648438 9.589844 C 9.890625 8.621094 8.445312 8.296875 7.738281 8.140625 C 7.660156 8.121094 7.589844 8.105469 7.53125 8.089844 L 7.074219 9.925781 C 7.121094 9.9375 7.175781 9.953125 7.234375 9.96875 Z M 7.238281 9.96875 "/>
</g>
</svg>
